<svg width="76" height="75" viewBox="0 0 76 75" fill="none" xmlns="http://www.w3.org/2000/svg">
<path d="M35.8691 67.1624C31.9914 66.7116 29.619 59.7127 30.5703 51.5298L34.0152 21.8971C34.9664 13.7142 38.8811 7.44619 42.7589 7.89699L56.8015 9.52948C60.6793 9.98029 63.0517 16.9792 62.1004 25.1621L58.6555 54.7948C57.7042 62.9777 53.7895 69.2457 49.9117 68.7949L35.8691 67.1624Z" fill="white"/>
<path d="M60.9391 0H14.0641C6.30047 0 0.00164795 6.29882 0.00164795 14.0625V60.9375C0.00164795 68.7012 6.30047 75 14.0641 75H60.9391C68.7028 75 75.0016 68.7012 75.0016 60.9375V14.0625C75.0016 6.29882 68.7028 0 60.9391 0ZM59.0348 40.3959H52.0149V66.3687H40.2961V40.3959H35.7439V31.6406H40.2961V26.063C40.2961 18.7613 43.3272 14.4231 51.9473 14.4231H60.6687V23.1445H55.5981C52.2515 23.1445 52.0262 24.384 52.0262 26.7278L52.0149 31.6407H59.9927L59.0348 40.3959Z" fill="#3B5998"/>
</svg>
