<svg width="47" height="41" viewBox="0 0 47 41" fill="none" xmlns="http://www.w3.org/2000/svg">
<path d="M45.9166 16.6005H44.0534V16.5175H23.2355V24.5175H36.308C34.4008 29.1745 29.2761 32.5175 23.2355 32.5175C15.571 32.5175 9.35689 27.1445 9.35689 20.5175C9.35689 13.8905 15.571 8.51746 23.2355 8.51746C26.7734 8.51746 29.992 9.67146 32.4428 11.5565L38.9854 5.89946C34.8542 2.57046 29.3282 0.517456 23.2355 0.517456C10.4614 0.517456 0.104492 9.47246 0.104492 20.5175C0.104492 31.5625 10.4614 40.5175 23.2355 40.5175C36.0096 40.5175 46.3665 31.5625 46.3665 20.5175C46.3665 19.1765 46.2069 17.8675 45.9166 16.6005Z" fill="#BCBCBC"/>
<path d="M2.7715 11.2085L10.3712 16.0275C12.4275 11.6255 17.4076 8.51746 23.2355 8.51746C26.7734 8.51746 29.992 9.67146 32.4428 11.5565L38.9854 5.89946C34.8542 2.57046 29.3282 0.517456 23.2355 0.517456C14.3509 0.517456 6.64594 4.85446 2.7715 11.2085Z" fill="#696969"/>
<path d="M23.2355 40.5175C29.2102 40.5175 34.6391 38.5405 38.7437 35.3255L31.5846 30.0875C29.2623 31.6085 26.3755 32.5175 23.2355 32.5175C17.2191 32.5175 12.1106 29.2005 10.1861 24.5715L2.64312 29.5965C6.4713 36.0735 14.2456 40.5175 23.2355 40.5175Z" fill="#8F8F8F"/>
<path d="M45.9166 16.6005L45.8981 16.5175H44.0534H23.2355V24.5175H36.308C35.392 26.7545 33.7277 28.6835 31.5811 30.0885L31.5846 30.0875L38.7437 35.3255C38.2371 35.7235 46.3665 30.5175 46.3665 20.5175C46.3665 19.1765 46.2069 17.8675 45.9166 16.6005Z" fill="#898989"/>
</svg>
