<svg width="410" height="35" viewBox="0 0 410 35" fill="none" xmlns="http://www.w3.org/2000/svg">
<path d="M0 4C0 2.34315 1.34315 1 3 1H45C46.6569 1 48 2.34315 48 4V29.5C48 31.1569 46.6569 32.5 45 32.5H3C1.34315 32.5 0 31.1569 0 29.5V4Z" fill="white"/>
<path d="M26.4588 19.2961C25.5013 19.2961 24.9762 19.1648 24.17 18.8336L23.8713 18.6973L23.5325 20.6661C24.115 20.9061 25.165 21.1123 26.2512 21.1286C28.8025 21.1286 30.47 19.9448 30.49 18.1236C30.51 17.1223 29.8525 16.3623 28.4638 15.7361C27.6213 15.3298 27.0963 15.0573 27.0963 14.6448C27.0963 14.2798 27.545 13.8911 28.4825 13.8911C29.1055 13.8761 29.7248 13.9906 30.3013 14.2273L30.5263 14.3273L30.865 12.4248L30.8062 12.4373C30.1086 12.1869 29.3724 12.0612 28.6312 12.0661C26.2312 12.0661 24.5375 13.2586 24.525 14.9673C24.51 16.2236 25.73 16.9311 26.6513 17.3523C27.5975 17.7836 27.9137 18.0548 27.9112 18.4423C27.905 19.0311 27.155 19.2961 26.4588 19.2961V19.2961ZM37.035 12.2273H35.16C34.5762 12.2273 34.14 12.3836 33.8837 12.9561L30.2775 21.0061H32.8287L33.3388 19.6886L36.4513 19.6911C36.5275 19.9986 36.7513 21.0061 36.7513 21.0061H39L37.035 12.2273ZM34.0375 17.8873L35.005 15.4336C34.9925 15.4586 35.205 14.9261 35.3275 14.5961L35.4937 15.3536L36.055 17.8873H34.0375ZM19.555 20.9361H21.985L23.5037 12.1536H21.075V12.1511L19.555 20.9361ZM15.1537 18.2136L14.9013 16.9936V16.9973L14.0488 12.9648C13.9025 12.4061 13.475 12.2411 12.945 12.2211H9.03125L9 12.4061C9.88125 12.6123 10.675 12.9111 11.385 13.2773C11.4953 13.3418 11.576 13.4467 11.61 13.5698L13.71 20.9936H16.2775L20.1038 12.2273H17.53L15.1537 18.2136V18.2136Z" fill="#191E6E"/>
<path d="M90 4C90 2.34315 91.3431 1 93 1H135C136.657 1 138 2.34315 138 4V29.5C138 31.1569 136.657 32.5 135 32.5H93C91.3431 32.5 90 31.1569 90 29.5V4Z" fill="white"/>
<g clip-path="url(#clip0_129_224)">
<path d="M117.786 23.8028H110.214V10.196H117.786V23.8028Z" fill="#FF5F00"/>
<path d="M110.695 17C110.694 15.6897 110.991 14.3962 111.563 13.2176C112.136 12.039 112.969 11.0061 114 10.1972C112.723 9.19398 111.191 8.57014 109.576 8.39695C107.962 8.22376 106.332 8.5082 104.871 9.21777C103.411 9.92733 102.18 11.0334 101.318 12.4096C100.457 13.7857 100 15.3765 100 17C100 18.6233 100.457 20.2138 101.319 21.5898C102.18 22.9657 103.411 24.0717 104.871 24.7812C106.331 25.4907 107.961 25.7752 109.575 25.6022C111.189 25.4292 112.722 24.8057 113.999 23.8028C112.968 22.9936 112.135 21.9607 111.563 20.7821C110.991 19.6035 110.694 18.3102 110.695 17V17Z" fill="#EB001B"/>
<path d="M128 17C128 18.6235 127.543 20.2143 126.682 21.5904C125.82 22.9666 124.589 24.0727 123.129 24.7822C121.668 25.4918 120.038 25.7762 118.424 25.603C116.809 25.4299 115.277 24.806 114 23.8028C116.012 22.2185 117.305 19.7603 117.305 17C117.305 14.2397 116.012 11.7815 114 10.1972C115.277 9.19398 116.809 8.57014 118.424 8.39695C120.038 8.22376 121.668 8.5082 123.129 9.21777C124.589 9.92733 125.82 11.0334 126.682 12.4096C127.543 13.7857 128 15.3765 128 17V17Z" fill="#F79E1B"/>
</g>
<path d="M272 4C272 2.34315 273.343 1 275 1H317C318.657 1 320 2.34315 320 4V29.5C320 31.1569 318.657 32.5 317 32.5H275C273.343 32.5 272 31.1569 272 29.5V4Z" fill="white"/>
<g clip-path="url(#clip1_129_224)">
<path d="M301.957 8.50833C301.031 7.4525 299.357 7 297.215 7H290.999C290.562 7 290.188 7.31833 290.12 7.75083L287.533 24.165C287.521 24.2412 287.526 24.3191 287.547 24.3933C287.568 24.4676 287.605 24.5364 287.655 24.595C287.705 24.6536 287.767 24.7007 287.837 24.7329C287.907 24.7651 287.984 24.7818 288.061 24.7817H291.898L292.862 18.6692L292.832 18.8608C292.899 18.4292 293.271 18.1108 293.707 18.11H295.531C299.113 18.11 301.917 16.655 302.737 12.4458C302.761 12.3217 302.782 12.2 302.8 12.0817C303.043 10.5258 302.798 9.4675 301.957 8.50833V8.50833Z" fill="#003087"/>
<path d="M301.957 8.50833C301.031 7.4525 299.357 7 297.215 7H290.999C290.562 7 290.188 7.31833 290.12 7.75083L287.533 24.165C287.521 24.2412 287.526 24.3191 287.547 24.3933C287.568 24.4676 287.605 24.5364 287.655 24.595C287.705 24.6536 287.767 24.7007 287.837 24.7329C287.907 24.7651 287.984 24.7818 288.061 24.7817H291.898L292.862 18.6692L292.832 18.8608C292.899 18.4292 293.271 18.1108 293.707 18.11H295.531C299.113 18.11 301.917 16.655 302.737 12.4458C302.761 12.3217 302.782 12.2 302.8 12.0817C303.043 10.5258 302.798 9.4675 301.957 8.50833V8.50833Z" fill="#003087"/>
<path d="M293.896 12.1025C293.925 11.9195 294.018 11.7529 294.159 11.6325C294.3 11.5121 294.479 11.4459 294.664 11.4458H299.537C300.113 11.4458 300.652 11.4833 301.144 11.5617C301.413 11.6048 301.679 11.6643 301.941 11.74C302.238 11.8233 302.526 11.9383 302.799 12.0817C303.043 10.5258 302.798 9.4675 301.957 8.5075C301.03 7.4525 299.357 7 297.215 7H290.999C290.562 7 290.189 7.31833 290.121 7.75083L287.532 24.1642C287.52 24.2403 287.525 24.3181 287.546 24.3923C287.567 24.4665 287.604 24.5353 287.654 24.5939C287.704 24.6525 287.766 24.6995 287.836 24.7318C287.906 24.7641 287.982 24.7808 288.059 24.7808H291.897L292.86 18.6675L293.896 12.1025V12.1025Z" fill="#003087"/>
<path d="M302.8 12.0817C302.781 12.2033 302.76 12.325 302.737 12.4458C301.918 16.6542 299.113 18.11 295.531 18.11H293.706C293.269 18.11 292.898 18.4292 292.831 18.8608L291.897 24.7817L291.631 26.4608C291.62 26.5275 291.624 26.5956 291.643 26.6605C291.661 26.7255 291.693 26.7856 291.737 26.8369C291.781 26.8881 291.836 26.9292 291.897 26.9574C291.958 26.9856 292.025 27.0001 292.093 27H295.328C295.71 27 296.036 26.7208 296.096 26.3433L296.128 26.1783L296.738 22.315L296.776 22.1017C296.805 21.9185 296.898 21.7518 297.039 21.6314C297.18 21.511 297.36 21.4449 297.545 21.445H298.029C301.163 21.445 303.616 20.1725 304.333 16.49C304.632 14.9517 304.478 13.6667 303.686 12.765C303.435 12.4852 303.134 12.2536 302.8 12.0817V12.0817Z" fill="#009CDE"/>
<path d="M301.942 11.74C301.814 11.7025 301.685 11.6695 301.555 11.6408C301.419 11.611 301.282 11.5852 301.144 11.5633C300.612 11.4813 300.075 11.442 299.537 11.4458H294.664C294.479 11.4455 294.299 11.5116 294.158 11.6322C294.017 11.7528 293.924 11.92 293.896 12.1033L292.86 18.67L292.83 18.8608C292.897 18.4292 293.268 18.1108 293.705 18.11H295.529C299.112 18.11 301.916 16.655 302.735 12.4458C302.759 12.3217 302.78 12.2008 302.798 12.0817C302.582 11.9683 302.357 11.8733 302.124 11.7975C302.064 11.7766 302.003 11.7574 301.942 11.74Z" fill="#012169"/>
</g>
<path fill-rule="evenodd" clip-rule="evenodd" d="M225.101 1H183.007C181.353 1 180 2.3725 180 4.05V29.975C180 31.6525 181.353 33.025 183.007 33.025H225.101C226.755 33.025 228.108 31.6525 228.108 29.975V4.05C228.108 2.3725 226.755 1 225.101 1Z" fill="#3498D8"/>
<path fill-rule="evenodd" clip-rule="evenodd" d="M190.073 17.4698H192.478L191.275 14.4198L190.073 17.4698ZM223.598 11.6748H217.434L215.93 13.3523L214.577 11.6748H201.498L200.295 14.4198L199.093 11.6748H193.831V12.8948L193.23 11.6748H188.72L184.36 22.3498H189.622L190.223 20.6723H191.726L192.328 22.3498H198.191V21.1298L198.642 22.3498H201.648L202.099 20.9773V22.3498H214.126L215.63 20.6723L216.983 22.3498H223.147L219.238 17.0123L223.598 11.6748ZM205.407 20.8248H203.753V14.8773L201.197 20.8248H199.694L197.138 14.8773V20.8248H193.681L193.079 19.1473H189.471L188.87 20.8248H186.915L190.073 13.1998H192.628L195.485 20.3673V13.1998H198.341L200.596 18.3848L202.701 13.1998H205.557V20.8248H205.407ZM220.29 20.8248H218.035L216.081 18.2323L213.826 20.8248H207.061V13.1998H213.976L216.081 15.6398L218.336 13.1998H220.441L217.133 17.0123L220.29 20.8248ZM208.714 14.7248V16.0973H212.473V17.6223H208.714V19.1473H212.924L214.878 16.8598L213.074 14.7248H208.714Z" fill="white"/>
<path d="M362 4C362 2.34315 363.343 1 365 1H407C408.657 1 410 2.34315 410 4V29.5C410 31.1569 408.657 32.5 407 32.5H365C363.343 32.5 362 31.1569 362 29.5V4Z" fill="white"/>
<path d="M375.005 14.0675C375.567 14.115 376.13 13.7825 376.482 13.3587V13.3575C376.829 12.925 377.057 12.34 377.001 11.75C376.5 11.7737 375.886 12.0825 375.535 12.5162C375.21 12.8862 374.934 13.4963 375.005 14.0675ZM373.612 21.8075C374.235 21.7837 374.48 21.3987 375.23 21.3987C375.985 21.3987 376.205 21.8075 376.861 21.7987C377.541 21.785 377.967 21.1812 378.384 20.5612C378.856 19.8575 379.054 19.1763 379.064 19.1388C379.05 19.125 377.751 18.62 377.736 17.0975C377.722 15.8225 378.764 15.2175 378.809 15.18C378.222 14.295 377.309 14.2 376.99 14.1762L376.992 14.1775C376.176 14.1288 375.479 14.6475 375.094 14.6475C374.7 14.6475 374.11 14.2 373.462 14.2137C372.625 14.2287 371.846 14.71 371.42 15.475C370.539 17.0112 371.19 19.2812 372.042 20.5325C372.46 21.15 372.956 21.8312 373.612 21.8075ZM388.812 16.9838H390.092C390.2 16.4125 390.72 16.0362 391.434 16.0362C392.301 16.0362 392.789 16.445 392.789 17.2013V17.715L391.017 17.825C389.372 17.925 388.481 18.61 388.481 19.7988C388.486 20.9975 389.404 21.7963 390.721 21.7975C391.612 21.7975 392.437 21.3412 392.811 20.6137H392.839V21.7275H394.151V17.1125C394.151 15.7762 393.096 14.91 391.475 14.91C389.97 14.91 388.856 15.7838 388.812 16.9838ZM392.794 19.2162C392.794 20.0825 392.066 20.7 391.106 20.7C390.351 20.7 389.869 20.3287 389.869 19.7675C389.869 19.1812 390.332 18.845 391.219 18.7925L392.794 18.6925V19.2162ZM381.697 12.4538V21.7262H383.117V18.5575H385.081C386.876 18.5575 388.132 17.3062 388.132 15.4987C388.132 13.6912 386.896 12.4538 385.127 12.4538H381.697V12.4538ZM386.69 15.5038C386.69 16.6738 385.987 17.35 384.749 17.35H383.117V13.6675H384.754C385.986 13.6675 386.69 14.3325 386.69 15.5038Z" fill="black"/>
<path d="M397.859 20.475L396.19 15H394.709L397.109 21.7513L396.977 22.16C396.761 22.8538 396.41 23.1263 395.782 23.1263C395.67 23.1263 395.455 23.1125 395.365 23.1025V24.2162C395.45 24.2362 395.802 24.25 395.91 24.25L395.909 24.2475C397.291 24.2475 397.942 23.71 398.511 22.0875L401 15H399.556L397.887 20.475H397.859Z" fill="black"/>
<defs>
<clipPath id="clip0_129_224">
<rect width="28" height="28" fill="white" transform="translate(100 3)"/>
</clipPath>
<clipPath id="clip1_129_224">
<rect width="20" height="20" fill="white" transform="translate(286 7)"/>
</clipPath>
</defs>
</svg>
