<svg width="703" height="560" viewBox="0 0 703 560" fill="none" xmlns="http://www.w3.org/2000/svg">
<path d="M703 559.019H519.203V551.528C519.203 547.269 521.148 543.185 524.611 540.174C528.074 537.163 532.77 535.471 537.667 535.471H684.536C689.433 535.471 694.129 537.163 697.592 540.174C701.055 543.185 703 547.269 703 551.528V559.019Z" fill="#E6E6E6"/>
<path d="M606.8 536.45L612.389 534.492C553.907 408.254 559.541 248.994 608.978 112.377C614.85 96.5478 615.274 79.5711 610.196 63.5355C605.119 47.4999 594.762 33.1048 580.399 22.1212C551.704 -0.146938 512.145 -5.57166 477.151 7.96262C442.611 21.3242 437.85 44.598 437.85 67.7586H443.876C443.876 43.0358 449.951 24.2201 479.601 12.7508C512.398 0.0667276 549.483 5.15432 576.386 26.0318C589.876 36.3477 599.605 49.868 604.374 64.9293C609.143 79.9906 608.745 95.9358 603.23 110.803C553.222 248.998 547.918 409.351 606.8 536.45Z" fill="#E6E6E6"/>
<path d="M442.37 145.056C454.018 145.056 463.461 136.844 463.461 126.714C463.461 116.584 454.018 108.372 442.37 108.372C430.721 108.372 421.278 116.584 421.278 126.714C421.278 136.844 430.721 145.056 442.37 145.056Z" fill="#E6E6E6"/>
<path d="M409.887 158.689V123.936H416.101V158.689C417.883 159.316 419.359 160.462 420.276 161.932C421.193 163.402 421.494 165.103 421.126 166.744C420.759 168.386 419.747 169.865 418.263 170.928C416.779 171.992 414.916 172.573 412.994 172.573C411.071 172.573 409.208 171.992 407.724 170.928C406.24 169.865 405.228 168.386 404.861 166.744C404.494 165.103 404.794 163.402 405.711 161.932C406.628 160.462 408.104 159.316 409.887 158.689Z" fill="#E6E6E6"/>
<path d="M379.848 97.236C379.859 89.2471 383.513 81.588 390.009 75.939C396.505 70.2899 405.312 67.1123 414.499 67.1033H471.747C480.937 67.1033 489.75 70.278 496.248 75.9289C502.746 81.5799 506.397 89.2443 506.397 97.236C506.397 105.228 502.746 112.892 496.248 118.543C489.75 124.194 480.937 127.369 471.747 127.369H414.499C405.312 127.36 396.505 124.182 390.009 118.533C383.513 112.884 379.859 105.225 379.848 97.236Z" fill="#1891AC"/>
<path d="M299.188 283.837C304.936 219.887 334.324 189.418 315.506 170.31C297.481 152.007 246.707 155.788 214.099 173.351C126.148 220.722 93.9257 409.524 207.105 501.768C314.655 589.424 518.482 561.35 563.779 489.605C574.348 472.865 582.745 443.519 567.276 425.746C528.872 381.622 389.243 461.543 327.162 411.555C290.371 381.931 296.033 318.933 299.188 283.837Z" fill="#3F3D56"/>
<path d="M366.419 252.066C364.282 252.921 362.614 254.466 361.768 256.374C360.923 258.282 360.966 260.402 361.89 262.282C362.085 262.662 362.316 263.027 362.58 263.373L343.702 285.293L353.122 297.537L375.249 265.078C376.816 264.015 377.935 262.53 378.431 260.856C378.926 259.182 378.77 257.412 377.988 255.823C377.532 254.922 376.877 254.108 376.06 253.428C375.243 252.747 374.28 252.214 373.226 251.857C372.171 251.5 371.047 251.327 369.916 251.349C368.785 251.37 367.669 251.585 366.634 251.981C366.562 252.008 366.49 252.037 366.419 252.066Z" fill="#FFB6B6"/>
<path d="M366.403 289.859C367.639 290.812 364.212 291.988 360.587 290.133C359.55 289.596 359.107 289.373 358.99 289.514C358.699 289.869 360.401 292.484 359.946 298.293C359.666 301.759 353.046 308.277 345.527 314.632C335.363 323.228 323.544 331.52 323.544 331.52L275.883 298.293L268.54 289.454C269.212 285.963 270.222 282.528 271.559 279.186C273.4 274.559 275.588 270.042 278.109 265.664C279.461 263.282 280.848 261.011 282.177 258.923L325.025 299.975C325.025 299.975 330.713 292.008 335.119 289.839C335.681 289.527 336.32 289.336 336.984 289.281C341.436 289.099 341.704 286.991 336.541 282.399C331.377 277.807 337.893 282.095 342.485 280.858C347.078 279.621 342.485 280.858 343.453 277.766C344.42 274.675 357.3 268.471 357.3 268.471L357.836 268.887L370.355 278.496C370.355 278.496 367.313 285.754 366.473 287.285C365.634 288.815 365.18 288.896 366.403 289.859Z" fill="#1891AC"/>
<path d="M622.972 430.669L623.446 419.488L574.082 412.576L573.381 429.077L622.972 430.669Z" fill="#FFB6B6"/>
<path d="M614.011 434.035L613.543 416.133L622.343 416.416L636.551 399.866C637.252 399.049 638.236 398.448 639.358 398.151C640.48 397.854 641.682 397.877 642.788 398.216C643.894 398.555 644.847 399.193 645.507 400.037C646.167 400.88 646.499 401.885 646.456 402.904L645.553 424.17L636.693 427.556L645.337 429.266L644.997 437.284L614.011 434.035Z" fill="#2F2E41"/>
<path d="M345.14 435.022L501.497 438.469C501.497 438.469 569.018 441.861 584.86 432.899L601.565 431.065L602.471 409.725C602.471 409.725 592.255 409.79 586.382 407.411C580.509 405.031 584.59 402.119 578.991 404.982C573.391 407.845 573.982 408.19 569.653 406.874C565.323 405.558 366.78 379.241 366.78 379.241L345.14 435.022Z" fill="#2F2E41"/>
<path d="M551.177 425.761L560.27 417.846L529.486 383.581L516.067 395.265L551.177 425.761Z" fill="#FFB6B6"/>
<path d="M541.976 418.875L555.633 405.475L561.864 410.887L585.222 407.157C586.376 406.973 587.567 407.114 588.622 407.56C589.677 408.006 590.54 408.734 591.086 409.637C591.631 410.54 591.831 411.571 591.655 412.579C591.479 413.588 590.937 414.521 590.108 415.243L572.815 430.299L563.671 427.541L568.67 433.907L562.15 439.584L541.976 418.875Z" fill="#2F2E41"/>
<path d="M283.453 360.555L285.007 391.977C286.837 428.968 333.682 451.356 370.007 432.043C370.676 431.687 371.348 431.318 372.022 430.936C372.022 430.936 385.792 427.72 385.374 422.627C384.956 417.534 388.321 415.056 391.298 416.444C394.275 417.833 433.255 369.726 433.255 369.726C433.255 369.726 514.242 404.857 532.109 413.127C532.109 413.127 548.907 390.287 547.689 390.526C546.471 390.766 447.498 330.524 447.498 330.524C447.498 330.524 431.374 316.333 411.372 325.703C410.956 327.079 411.312 327.127 411.312 327.127L345.241 373.946L335.905 358.527L283.453 360.555Z" fill="#2F2E41"/>
<path d="M345.749 321.272C345.624 322.723 345.386 324.166 345.038 325.59C344.562 327.651 343.795 329.653 342.753 331.55C342.753 331.55 342.753 333.668 338.091 340.764C333.429 347.859 339.257 344.818 342.753 350.089C346.25 355.35 342.753 352.928 338.872 356.313C337.754 357.298 336.961 358.526 336.573 359.868C336.186 361.21 336.219 362.618 336.669 363.946C336.669 363.946 286.595 363.976 277.27 360.935C267.945 357.894 265.824 340.764 274.181 339.071C282.527 337.378 271.652 335.696 266.744 331.793C261.837 327.891 271.652 321.505 271.652 321.505C271.652 321.505 267.607 315.433 267.945 295.049C267.993 293.174 268.191 291.304 268.54 289.454C269.212 285.963 270.222 282.528 271.559 279.186C273.4 274.559 275.588 270.042 278.109 265.664C279.461 263.282 280.848 261.011 282.177 258.923C282.387 258.599 282.585 258.284 282.795 257.97C285.324 254.078 287.632 250.895 289.159 248.858C290.336 247.276 291.047 246.384 291.047 246.384L299.533 233.552L327.857 245.097L326.248 263.981L335.119 289.839L337.799 297.674C337.799 297.674 337.065 297.705 337.939 298.749C341.965 303.404 344.575 308.867 345.527 314.632C345.863 316.833 345.937 319.058 345.749 321.272Z" fill="#1891AC"/>
<path d="M427.546 323.307L359.221 304.173L384.203 232.903C384.7 231.484 385.561 230.181 386.722 229.093C387.882 228.006 389.312 227.161 390.902 226.624C392.492 226.087 394.202 225.87 395.902 225.991C397.603 226.112 399.25 226.566 400.719 227.321L444.041 249.579C447.47 251.339 450.079 254.091 451.412 257.354C452.745 260.617 452.717 264.184 451.333 267.431L427.546 323.307Z" fill="#2F2E41"/>
<path d="M427.821 327.838L359.483 308.701L384.464 237.43C384.961 236.011 385.823 234.708 386.983 233.621C388.144 232.533 389.573 231.689 391.163 231.151C392.754 230.614 394.463 230.397 396.164 230.518C397.864 230.639 399.511 231.094 400.98 231.848L446.371 251.556C453.19 255.059 453.03 264.124 449.864 271.563L427.821 327.838Z" fill="#1891AC"/>
<path d="M420.979 332.996C419.406 333.768 417.664 334.247 415.866 334.403C414.068 334.558 412.253 334.387 410.535 333.9L366.855 321.667C363.504 320.715 360.714 318.661 359.08 315.944C357.447 313.227 357.1 310.062 358.114 307.125L380.013 244.648C380.45 243.4 381.17 242.24 382.13 241.237C383.09 240.234 384.27 239.408 385.602 238.806C386.934 238.205 388.39 237.841 389.886 237.736C391.381 237.631 392.886 237.787 394.312 238.194L439.578 251.119C441.734 251.734 443.727 252.72 445.439 254.017C447.151 255.313 448.546 256.895 449.543 258.669C450.539 260.443 451.117 262.372 451.242 264.343C451.367 266.314 451.036 268.287 450.27 270.145L426.855 326.912C425.804 329.49 423.717 331.65 420.979 332.996Z" fill="#3F3D56"/>
<path d="M326.256 233.771C343.534 233.771 357.542 221.59 357.542 206.564C357.542 191.538 343.534 179.357 326.256 179.357C308.977 179.357 294.97 191.538 294.97 206.564C294.97 221.59 308.977 233.771 326.256 233.771Z" fill="#FFB6B6"/>
<path d="M220.462 234.181C223.333 239.02 228.04 242.847 233.786 245.013C236.079 245.921 238.49 246.585 240.966 246.989C241.666 244.575 242.787 242.268 244.289 240.149C243.789 242.538 243.789 244.985 244.289 247.374C248.062 247.643 251.858 247.233 255.441 246.17C258.959 245.13 262.151 243.39 264.762 241.09C267.372 238.79 269.331 235.992 270.482 232.919C272.974 225.707 270.29 218.005 270.078 210.477C269.86 202.949 273.971 193.944 282.565 193.013C289.11 192.302 288.301 192.854 293.003 196.875C286.425 203.229 302.462 231.375 311.067 230.131C315.932 229.428 319.512 226.069 320.475 226.185C325.402 236.679 310.58 251.561 322.336 256.447L321.463 255.443C315.31 246.603 333.517 231.673 327.364 222.833C325.649 220.36 323.865 217.461 324.926 214.725C325.934 212.124 331.035 211.301 332.111 213.669C330.362 208.243 335.246 201.874 341.733 201.32C347.496 200.826 347.164 202.254 352.659 203.558C353.361 201.499 354.373 199.53 355.668 197.702C355.23 199.788 355.176 201.921 355.508 204.021C357.49 204.227 359.494 203.858 361.211 202.971C366.285 200.326 366.436 193.498 362.95 189.342C359.458 185.185 353.608 183.133 347.965 181.58C347.913 171.201 315.8 166.233 309.894 175.882C309.287 168.069 298.988 162.806 290.117 164.133C281.245 165.46 274.246 171.647 269.979 178.542C265.713 185.431 263.595 193.146 260.472 200.485C257.348 207.823 252.884 215.141 245.405 219.495C237.927 223.844 226.814 224.239 220.571 218.602C219.147 221.009 218.395 223.674 218.376 226.38C218.357 229.087 219.072 231.759 220.462 234.181Z" fill="#2F2E41"/>
<path d="M252.564 358.596C253.211 358.146 253.913 357.759 254.658 357.443C266.633 352.26 303.872 338.807 332.99 339.359C389.016 340.421 460.316 394.191 443.722 430.299C431.096 457.775 368.322 473.407 322.5 460.904C258.306 443.389 232.968 372.183 252.564 358.596Z" fill="#3F3D56"/>
<path d="M19.9774 556.536C1.67043 553.533 -14.5345 481.81 21.4839 446.486C33.8244 434.384 49.2174 429.116 69.693 424.214C187.544 395.999 277.431 422.889 289.51 429.455C301.563 436.005 322.692 534.705 295.673 548.676C280.471 556.536 250.341 560.467 235.412 551.296C213.445 537.802 250.316 502.8 233.905 479.239C215.282 452.503 117.216 443.498 68.05 470.068C15.595 498.417 123.792 573.568 19.9774 556.536Z" fill="#F2F2F2"/>
<path d="M142.375 434.592H72.4361C55.171 420.203 42.8265 406.335 52.7096 394.824C52.7096 391.516 54.2211 388.342 56.9116 386.002C59.6021 383.663 63.2512 382.348 67.0561 382.348H147.755C151.56 382.348 155.209 383.663 157.9 386.002C160.59 388.342 162.102 391.516 162.102 394.824C165.864 407.94 159.142 421.198 142.375 434.592Z" fill="#CCCCCC"/>
<path d="M129.815 366.642C129.151 366.669 128.494 366.517 127.933 366.208C127.372 365.899 126.933 365.448 126.677 364.915C126.421 364.382 126.359 363.793 126.5 363.229C126.641 362.664 126.979 362.151 127.467 361.759L127.689 360.991C127.659 360.93 127.63 360.869 127.6 360.807C126.932 359.434 125.812 358.263 124.381 357.442C122.949 356.621 121.271 356.185 119.556 356.191C117.842 356.196 116.167 356.643 114.743 357.473C113.319 358.304 112.208 359.482 111.552 360.859C108.927 366.357 105.585 371.864 104.762 377.677C104.4 380.246 104.553 382.851 105.214 385.375C99.0488 373.68 95.8475 360.969 95.8269 348.103C95.8256 344.875 96.0318 341.649 96.4447 338.441C96.7859 335.81 97.2593 333.199 97.8648 330.606C101.169 316.538 108.264 303.352 118.566 292.132C123.552 289.766 127.585 286.128 130.12 281.707C131.038 280.119 131.687 278.422 132.047 276.672C131.485 276.736 129.926 269.286 130.35 268.829C129.567 267.795 128.164 267.281 127.307 266.271C123.05 261.251 117.184 262.128 114.121 268.95C107.58 271.821 107.516 276.582 111.53 281.162C114.084 284.076 114.435 288.018 116.676 291.137C116.445 291.394 116.205 291.643 115.975 291.899C111.761 296.612 108.088 301.672 105.009 307.007C105.758 301.03 104.864 294.984 102.401 289.365C99.9057 284.13 95.2277 279.72 91.1081 275.193C86.1599 269.757 76.0131 272.129 75.1413 279.021C75.1328 279.088 75.1246 279.155 75.1166 279.222C75.7284 279.522 76.3274 279.84 76.9135 280.177C77.6497 280.605 78.2202 281.216 78.5502 281.931C78.8802 282.645 78.9543 283.43 78.7627 284.182C78.5712 284.934 78.123 285.617 77.4768 286.144C76.8307 286.67 76.0167 287.015 75.1416 287.132L75.052 287.144C75.27 289.062 75.6553 290.963 76.2047 292.83C70.9198 310.603 82.3294 317.076 98.6209 317.367C98.9805 317.528 99.331 317.688 99.6906 317.84C96.5971 325.464 94.6568 333.405 93.9182 341.464C93.5001 346.218 93.5248 350.994 93.992 355.745L93.9643 355.577C92.7839 350.294 89.5432 345.527 84.7894 342.081C77.7288 337.037 67.7535 335.18 60.1363 331.126C59.3268 330.674 58.3855 330.432 57.4235 330.43C56.4615 330.428 55.5189 330.666 54.7069 331.114C53.8948 331.563 53.2472 332.204 52.8404 332.962C52.4336 333.72 52.2846 334.563 52.411 335.393C52.4212 335.452 52.4316 335.511 52.4421 335.57C53.5776 335.972 54.6832 336.435 55.7524 336.957C56.3643 337.257 56.9633 337.576 57.5493 337.913C58.2856 338.341 58.856 338.952 59.186 339.666C59.516 340.381 59.5901 341.165 59.3985 341.917C59.207 342.669 58.7588 343.353 58.1127 343.879C57.4666 344.406 56.6526 344.75 55.7775 344.868L55.6878 344.88C55.6233 344.888 55.568 344.896 55.5035 344.904C57.4437 348.932 60.1667 352.64 63.5534 355.865C66.8579 371.381 81.0508 372.853 96.2326 368.335H96.2419C97.9076 374.629 100.321 380.757 103.444 386.617H129.17C129.262 386.369 129.345 386.112 129.428 385.864C127.047 385.994 124.656 385.87 122.31 385.495C124.218 383.458 126.127 381.405 128.036 379.368C128.078 379.33 128.119 379.29 128.156 379.248C129.124 378.206 130.101 377.171 131.07 376.129L131.07 376.128C131.122 372.932 130.699 369.744 129.815 366.642Z" fill="#CCCCCC"/>
<path d="M217.563 431.333C217.99 432.413 218.799 433.348 219.875 434.004C220.951 434.659 222.238 435.001 223.551 434.981L249.209 434.406C250.532 434.384 251.811 433.99 252.855 433.283C253.899 432.576 254.652 431.594 255.001 430.484L258.632 396.722C259.92 397.229 261.322 397.48 262.736 397.455C265.217 397.401 267.572 396.492 269.282 394.928C270.992 393.364 271.918 391.274 271.856 389.116C271.793 386.959 270.748 384.911 268.95 383.424C267.152 381.937 264.748 381.132 262.267 381.186C261.702 381.184 261.138 381.235 260.585 381.338C259.984 380.773 259.254 380.323 258.441 380.018C257.628 379.713 256.75 379.559 255.865 379.567L216.398 380.453C216.071 380.464 215.745 380.499 215.424 380.558C214.559 380.699 213.738 380.998 213.017 381.438C212.296 381.877 211.691 382.446 211.244 383.105C210.797 383.765 210.518 384.5 210.424 385.261C210.331 386.023 210.427 386.792 210.705 387.519L217.563 431.333ZM259.376 394.429L261.96 386.383C262.254 385.454 262.261 384.474 261.98 383.541C262.105 383.541 262.216 383.489 262.341 383.489C264.112 383.458 265.826 384.038 267.106 385.103C268.386 386.169 269.127 387.632 269.169 389.172C269.21 390.712 268.548 392.204 267.327 393.32C266.106 394.436 264.426 395.086 262.655 395.126C261.509 395.157 260.376 394.916 259.376 394.429Z" fill="#CCCCCC"/>
<path d="M215.424 380.558C216.265 384.739 225.719 387.678 237.086 387.167C247.538 386.749 256.085 383.557 257.651 379.774C257.072 379.625 256.469 379.555 255.865 379.567L216.398 380.453C216.071 380.464 215.745 380.499 215.424 380.558Z" fill="white"/>
<path d="M404.095 291.064C401.746 291.139 399.522 292.008 397.898 293.486C396.274 294.965 395.377 296.936 395.398 298.981C395.41 299.397 395.462 299.811 395.552 300.219L368.434 314.142L371.717 328.593L406.494 306.028C408.411 305.571 410.1 304.575 411.298 303.195C412.496 301.815 413.134 300.129 413.114 298.4C413.092 297.417 412.847 296.446 412.394 295.545C411.94 294.644 411.287 293.829 410.472 293.147C409.656 292.465 408.694 291.93 407.641 291.571C406.587 291.213 405.463 291.038 404.332 291.058C404.253 291.059 404.174 291.061 404.095 291.064Z" fill="#FFB6B6"/>
<path d="M381.881 324.255C381.155 323.41 380.844 323.057 380.679 323.154C380.254 323.376 380.663 326.362 377.676 331.566C373.472 338.877 329.387 350.075 329.387 350.075L300.085 303.458L291.856 273.02C291.568 271.959 291.428 270.871 291.44 269.781C298.777 265.291 306.568 261.391 314.718 258.129C317.975 259.735 320.457 262.307 321.712 265.375L344.704 321.446C344.704 321.446 356.272 314.252 360.468 315.573C364.658 316.901 365.848 315.038 363.11 309.075C360.371 303.111 364.482 309.25 369.265 309.64C374.058 310.036 369.265 309.64 371.529 307.109C373.793 304.579 388.429 303.155 388.429 303.155L388.74 303.719L394.412 313.866L396.036 316.781C396.036 316.781 390.023 322.455 388.572 323.585C387.114 324.724 386.664 324.646 387.378 325.943C388.082 327.235 384.4 327.176 381.881 324.255Z" fill="#1891AC"/>
<path d="M440.951 250.528C442.576 251.006 443.65 252.203 443.06 254.27L439.668 265.777C439.63 265.905 439.568 266.027 439.487 266.127C439.355 266.286 439.183 266.383 439.003 266.396C438.829 266.411 438.664 266.33 438.552 266.181L435.391 262.583L430.776 263.894C430.669 263.927 430.555 263.936 430.453 263.906C430.117 263.807 429.95 263.379 430.075 262.955L433.467 251.448C434.075 249.387 435.633 248.964 437.252 249.44L440.951 250.528ZM440.009 255.226L435.495 253.898C435.237 253.822 434.949 254.026 434.85 254.359C434.752 254.692 434.884 255.02 435.141 255.096L439.656 256.424C439.914 256.5 440.202 256.295 440.3 255.962C440.399 255.629 440.267 255.302 440.009 255.226Z" fill="#1891AC"/>
</svg>
